<mxfile host="app.diagrams.net" modified="2021-03-02T02:12:09.200Z" agent="5.0 (Windows NT 10.0; Win64; x64) AppleWebKit/537.36 (KHTML, like Gecko) Chrome/87.0.4280.88 Safari/537.36" etag="zDeoQ8whlnXe7MFG8hlG" version="14.4.3" type="github">
  <diagram id="C5RBs43oDa-KdzZeNtuy" name="Page-1">
    <mxGraphModel dx="1422" dy="762" grid="1" gridSize="10" guides="1" tooltips="1" connect="1" arrows="1" fold="1" page="1" pageScale="1" pageWidth="827" pageHeight="1169" math="0" shadow="0">
      <root>
        <mxCell id="WIyWlLk6GJQsqaUBKTNV-0" />
        <mxCell id="WIyWlLk6GJQsqaUBKTNV-1" parent="WIyWlLk6GJQsqaUBKTNV-0" />
        <mxCell id="9OWZdevzXRfXu_MRzkHP-4" value="" style="edgeStyle=orthogonalEdgeStyle;rounded=0;orthogonalLoop=1;jettySize=auto;html=1;" edge="1" parent="WIyWlLk6GJQsqaUBKTNV-1" source="9OWZdevzXRfXu_MRzkHP-2" target="9OWZdevzXRfXu_MRzkHP-3">
          <mxGeometry relative="1" as="geometry" />
        </mxCell>
        <mxCell id="9OWZdevzXRfXu_MRzkHP-2" value="开始" style="strokeWidth=2;html=1;shape=mxgraph.flowchart.start_1;whiteSpace=wrap;" vertex="1" parent="WIyWlLk6GJQsqaUBKTNV-1">
          <mxGeometry x="220" y="50" width="70" height="30" as="geometry" />
        </mxCell>
        <mxCell id="9OWZdevzXRfXu_MRzkHP-6" value="" style="edgeStyle=orthogonalEdgeStyle;rounded=0;orthogonalLoop=1;jettySize=auto;html=1;" edge="1" parent="WIyWlLk6GJQsqaUBKTNV-1" source="9OWZdevzXRfXu_MRzkHP-3" target="9OWZdevzXRfXu_MRzkHP-5">
          <mxGeometry relative="1" as="geometry" />
        </mxCell>
        <mxCell id="9OWZdevzXRfXu_MRzkHP-3" value="用户打开小程序，&lt;br&gt;默认进入 login 页面" style="whiteSpace=wrap;html=1;strokeWidth=2;" vertex="1" parent="WIyWlLk6GJQsqaUBKTNV-1">
          <mxGeometry x="195" y="125" width="120" height="45" as="geometry" />
        </mxCell>
        <mxCell id="9OWZdevzXRfXu_MRzkHP-8" value="已绑定&lt;br&gt;（返回新生成的 token）" style="edgeStyle=orthogonalEdgeStyle;rounded=0;orthogonalLoop=1;jettySize=auto;html=1;" edge="1" parent="WIyWlLk6GJQsqaUBKTNV-1" target="9OWZdevzXRfXu_MRzkHP-7">
          <mxGeometry x="-0.3333" relative="1" as="geometry">
            <mxPoint x="350" y="251" as="sourcePoint" />
            <Array as="points">
              <mxPoint x="440" y="251" />
              <mxPoint x="440" y="496" />
            </Array>
            <mxPoint as="offset" />
          </mxGeometry>
        </mxCell>
        <mxCell id="9OWZdevzXRfXu_MRzkHP-15" value="未绑定" style="edgeStyle=orthogonalEdgeStyle;rounded=0;orthogonalLoop=1;jettySize=auto;html=1;" edge="1" parent="WIyWlLk6GJQsqaUBKTNV-1" source="9OWZdevzXRfXu_MRzkHP-5" target="9OWZdevzXRfXu_MRzkHP-14">
          <mxGeometry relative="1" as="geometry" />
        </mxCell>
        <mxCell id="9OWZdevzXRfXu_MRzkHP-5" value="调用 API 接口&lt;br&gt;检测微信帐号是否已绑定&lt;br&gt;协作平台帐号" style="rhombus;whiteSpace=wrap;html=1;strokeWidth=2;" vertex="1" parent="WIyWlLk6GJQsqaUBKTNV-1">
          <mxGeometry x="163" y="212.5" width="185" height="77.5" as="geometry" />
        </mxCell>
        <mxCell id="9OWZdevzXRfXu_MRzkHP-21" style="edgeStyle=orthogonalEdgeStyle;rounded=0;orthogonalLoop=1;jettySize=auto;html=1;exitX=0.5;exitY=1;exitDx=0;exitDy=0;entryX=0.5;entryY=0;entryDx=0;entryDy=0;" edge="1" parent="WIyWlLk6GJQsqaUBKTNV-1" source="9OWZdevzXRfXu_MRzkHP-7" target="9OWZdevzXRfXu_MRzkHP-9">
          <mxGeometry relative="1" as="geometry" />
        </mxCell>
        <mxCell id="9OWZdevzXRfXu_MRzkHP-7" value="跳转到内页" style="whiteSpace=wrap;html=1;strokeWidth=2;" vertex="1" parent="WIyWlLk6GJQsqaUBKTNV-1">
          <mxGeometry x="213" y="480" width="85" height="30" as="geometry" />
        </mxCell>
        <mxCell id="9OWZdevzXRfXu_MRzkHP-9" value="结束" style="ellipse;whiteSpace=wrap;html=1;strokeWidth=2;" vertex="1" parent="WIyWlLk6GJQsqaUBKTNV-1">
          <mxGeometry x="216.88" y="610" width="77.25" height="30" as="geometry" />
        </mxCell>
        <mxCell id="9OWZdevzXRfXu_MRzkHP-16" value="绑定成功" style="edgeStyle=orthogonalEdgeStyle;rounded=0;orthogonalLoop=1;jettySize=auto;html=1;exitX=0.5;exitY=1;exitDx=0;exitDy=0;entryX=0.5;entryY=0;entryDx=0;entryDy=0;" edge="1" parent="WIyWlLk6GJQsqaUBKTNV-1" source="9OWZdevzXRfXu_MRzkHP-14" target="9OWZdevzXRfXu_MRzkHP-7">
          <mxGeometry x="-0.1289" y="1" relative="1" as="geometry">
            <mxPoint as="offset" />
          </mxGeometry>
        </mxCell>
        <mxCell id="9OWZdevzXRfXu_MRzkHP-20" value="绑定失败" style="edgeStyle=orthogonalEdgeStyle;rounded=0;orthogonalLoop=1;jettySize=auto;html=1;exitX=0;exitY=0.5;exitDx=0;exitDy=0;entryX=0.5;entryY=0;entryDx=0;entryDy=0;" edge="1" parent="WIyWlLk6GJQsqaUBKTNV-1" source="9OWZdevzXRfXu_MRzkHP-14" target="9OWZdevzXRfXu_MRzkHP-17">
          <mxGeometry x="0.5255" relative="1" as="geometry">
            <mxPoint as="offset" />
          </mxGeometry>
        </mxCell>
        <mxCell id="9OWZdevzXRfXu_MRzkHP-14" value="&lt;span&gt;用户填写帐号密码&lt;br&gt;进行绑定&lt;/span&gt;" style="rhombus;whiteSpace=wrap;html=1;strokeWidth=2;" vertex="1" parent="WIyWlLk6GJQsqaUBKTNV-1">
          <mxGeometry x="185" y="350" width="140" height="58.75" as="geometry" />
        </mxCell>
        <mxCell id="9OWZdevzXRfXu_MRzkHP-19" style="edgeStyle=orthogonalEdgeStyle;rounded=0;orthogonalLoop=1;jettySize=auto;html=1;exitX=0.5;exitY=1;exitDx=0;exitDy=0;entryX=0.5;entryY=0;entryDx=0;entryDy=0;" edge="1" parent="WIyWlLk6GJQsqaUBKTNV-1" source="9OWZdevzXRfXu_MRzkHP-17" target="9OWZdevzXRfXu_MRzkHP-9">
          <mxGeometry relative="1" as="geometry">
            <Array as="points">
              <mxPoint x="115" y="570" />
              <mxPoint x="255" y="570" />
            </Array>
          </mxGeometry>
        </mxCell>
        <mxCell id="9OWZdevzXRfXu_MRzkHP-17" value="提示用户" style="whiteSpace=wrap;html=1;strokeWidth=2;" vertex="1" parent="WIyWlLk6GJQsqaUBKTNV-1">
          <mxGeometry x="80" y="480.62" width="70" height="29.38" as="geometry" />
        </mxCell>
      </root>
    </mxGraphModel>
  </diagram>
</mxfile>
